PathFileType	4	(X/Y/Z)	c:/Users/goper/Files/vsCode/490R/osim_files/C06/C06_Static_01.trc
DataRate	CameraRate	NumFrames	NumMarkers	Units                	OrigDataRate	OrigDataStartFrame	OrigNumFrames
250.00	250.00	4	36	mm	250.0	1500	1714
                Frame#	Time	LPSIS			LASIS			LTH1			LTH2			LTH3			LTH4			LLFE			LMFE			LSH1			LSH2			LSH3			LSH4			LLMAL			LMMAL			LCAL			LMTP5			LTOE			LMTP1			RPSIS			RASIS			RTH1			RTH2			RTH3			RTH4			RLFE			RMFE			RSH1			RSH2			RSH3			RSH4			RLMAL			RMMAL			RCAL			RMTP1			RTOE			RMTP5		
		X1	Y1	Z1	X2	Y2	Z2	X3	Y3	Z3	X4	Y4	Z4	X5	Y5	Z5	X6	Y6	Z6	X7	Y7	Z7	X8	Y8	Z8	X9	Y9	Z9	X10	Y10	Z10	X11	Y11	Z11	X12	Y12	Z12	X13	Y13	Z13	X14	Y14	Z14	X15	Y15	Z15	X16	Y16	Z16	X17	Y17	Z17	X18	Y18	Z18	X19	Y19	Z19	X20	Y20	Z20	X21	Y21	Z21	X22	Y22	Z22	X23	Y23	Z23	X24	Y24	Z24	X25	Y25	Z25	X26	Y26	Z26	X27	Y27	Z27	X28	Y28	Z28	X29	Y29	Z29	X30	Y30	Z30	X31	Y31	Z31	X32	Y32	Z32	X33	Y33	Z33	X34	Y34	Z34	X35	Y35	Z35	X36	Y36	Z36

1500	5.99600	-388.63647	1014.52789	485.09583	-220.51851	970.20526	371.32693	-320.99261	801.61554	292.80386	-313.14365	739.87579	282.60349	-246.63162	802.13959	304.56393	-248.05634	741.84644	293.27368	-324.55493	481.49426	295.84702	-332.68573	447.77588	406.74048	-398.41403	377.69745	263.91138	-391.42688	334.53409	259.84485	-333.80426	383.03790	261.92786	-337.00534	339.18494	257.53052	-358.15515	92.88474	269.63351	-346.74829	98.01705	347.82428	-421.97363	66.62189	312.75027	-247.49535	30.70233	238.13225	-195.59151	55.64328	306.06696	-220.96584	35.92873	352.17044	-384.45480	1012.90356	557.58228	-195.64450	968.62396	612.39716	-287.98303	791.54736	708.34076	-280.85590	729.27972	710.18115	-215.75206	792.22235	686.14825	-219.17876	729.61743	691.70953	-303.31210	462.72571	688.99469	-298.27814	463.03217	579.52240	-362.61023	392.80896	717.10736	-359.68274	345.17920	723.66693	-302.74429	386.18140	709.85388	-308.74506	340.30133	716.02631	-336.73459	91.71217	697.91882	-317.19104	105.65655	619.27460	-400.46460	62.50929	656.81335	-198.02545	44.90436	622.47314	-176.45041	53.08000	661.56061	-219.52937	29.06240	728.75092
1501	6.00000	-388.65088	1014.51971	485.07620	-220.53993	970.17834	371.31747	-320.64099	801.79425	292.68359	-313.16306	739.85870	282.58899	-246.64058	802.13013	304.58069	-248.08321	741.81799	293.26318	-324.58591	481.47559	295.83517	-332.71332	447.78052	406.74048	-398.43430	377.68088	263.91208	-391.44440	334.53992	259.83530	-333.82983	383.01672	261.92160	-337.01959	339.16232	257.52420	-358.15161	92.85626	269.60992	-346.72278	97.98365	347.83783	-421.96191	66.56348	312.75552	-247.50435	30.66537	238.11732	-195.65205	55.76966	306.08304	-220.96962	35.90708	352.16879	-384.42197	1012.89191	557.57935	-195.68158	968.57513	612.38849	-287.97781	791.53992	708.32849	-280.85953	729.27197	710.17242	-215.75870	792.17352	686.14160	-219.20422	729.58502	691.73438	-303.33191	462.71863	688.99390	-298.30228	463.01080	579.50763	-362.59558	392.80551	717.10449	-359.69189	345.15863	723.69562	-302.74155	386.16495	709.86444	-308.74246	340.28006	716.01251	-336.71457	91.68851	697.94220	-317.20163	105.63579	619.27380	-400.45709	62.44392	656.79590	-198.02103	44.87508	622.46912	-176.44394	53.05857	661.54572	-219.50804	29.05206	728.74921
1502	6.00400	-388.64978	1014.51758	485.08884	-220.54532	970.16022	371.30029	-320.99527	801.61841	292.75601	-313.16293	739.87189	282.58405	-246.66095	802.10400	304.56168	-248.10316	741.77960	293.25522	-324.60776	481.45432	295.82648	-332.65991	447.76523	406.74472	-398.44421	377.67581	263.89517	-391.46225	334.53162	259.81433	-333.83835	382.99948	261.88852	-336.99725	339.14944	257.50803	-358.15063	92.85246	269.59747	-346.75089	97.99207	347.92905	-421.67813	66.37287	312.76367	-247.50676	30.64746	238.10869	-195.61899	55.58244	306.05264	-220.96962	35.88603	352.15115	-384.46014	1012.89709	557.57361	-195.65654	968.56628	612.37433	-287.97159	791.52075	708.30566	-280.84033	729.23041	710.15503	-215.76410	792.19000	686.15326	-219.21127	729.58386	691.72668	-303.32779	462.70230	688.98328	-297.94534	463.12021	579.06720	-362.58298	392.80643	717.09985	-359.65796	345.12009	723.67639	-302.72397	386.15216	709.84485	-308.73380	340.28094	715.98700	-336.66660	91.69040	697.94025	-317.20261	105.62341	619.26410	-400.41177	62.40570	656.79633	-197.80333	45.12166	622.18396	-176.44562	53.03159	661.54718	-219.51497	29.03372	728.75787
1503	6.00800	-388.65033	1014.52277	485.08347	-220.56302	970.13763	371.29959	-321.02686	801.60345	292.75677	-313.18613	739.86414	282.58005	-246.70280	802.07526	304.54443	-248.10371	741.77740	293.23047	-324.61850	481.44290	295.82422	-332.65485	447.75372	406.73123	-398.45679	377.67731	263.88837	-391.28989	334.79214	259.75095	-333.86081	382.95825	261.88632	-336.99442	339.14404	257.50864	-358.17114	92.83522	269.58310	-346.68787	97.96989	347.85684	-421.92679	66.48268	312.76181	-247.49280	30.61419	238.10211	-195.59222	55.55553	306.04538	-220.96851	35.86839	352.17673	-384.45682	1012.90430	557.56812	-195.65118	968.53198	612.37756	-287.96930	791.49945	708.31183	-280.82806	729.22528	710.16510	-215.80095	792.14874	686.16833	-219.23405	729.55756	691.71411	-303.34204	462.69800	688.99536	-298.33173	462.99243	579.46472	-362.59366	392.78763	717.10522	-359.69427	345.10559	723.68127	-302.72412	386.15186	709.84930	-308.74350	340.25797	716.00171	-336.64758	91.66447	697.96704	-317.21368	105.60385	619.26996	-400.42908	62.40572	656.79681	-197.81924	45.09013	622.19196	-176.44510	53.01035	661.53754	-219.50122	29.02607	728.75104
